<svg xmlns="http://www.w3.org/2000/svg" viewBox="65 219.34 420 31.32" width="100%">
  <path
    fill="#00968f"
    d="M79.518 230.169c.606-1.634 1.307-2.708 3.127-2.708h4.668v-7.329h-4.668c-4.388 0-8.589 3.501-9.99 7.562L65 249.681h7.749zM98.112 234.837c0 8.029 6.349 14.844 14.471 14.844h13.957v-7.422h-13.957c-4.015 0-7.049-3.501-7.049-7.422 0-3.968 3.034-7.47 7.049-7.47h6.349c1.447 0 1.213 1.635 1.213 2.568 0 .654-.56 1.214-1.213 1.214h-9.803v7.422h9.803c4.714 0 8.589-3.874 8.589-8.636v-1.354c0-4.714-3.875-8.589-8.59-8.589h-6.348c-8.122 0-14.471 6.816-14.471 14.845zM144.295 240.905c-2.614 0-4.715 2.147-4.715 4.715 0 2.614 2.1 4.715 4.715 4.715 2.614 0 4.714-2.101 4.714-4.715 0-2.568-2.1-4.715-4.714-4.715zm0-15.545a4.702 4.702 0 0 0-4.715 4.715c0 2.614 2.1 4.715 4.715 4.715 2.614 0 4.714-2.1 4.714-4.715 0-2.614-2.1-4.715-4.714-4.715zM160.648 234.93c0 8.122 6.302 14.751 14.051 14.751h10.363v-7.422H174.7c-3.64 0-6.628-3.268-6.628-7.329s2.987-7.376 6.628-7.376h10.363v-7.422H174.7c-7.749 0-14.05 6.629-14.05 14.798zM212.76 219.479c-8.543 0-15.218 7.142-15.218 15.591 0 8.403 6.675 15.591 15.217 15.591 8.543 0 15.172-7.188 15.172-15.591 0-8.45-6.63-15.591-15.172-15.591zm0 23.807c-4.529 0-7.89-3.875-7.89-8.216 0-4.388 3.408-8.262 7.89-8.262 4.48 0 7.842 3.874 7.842 8.262 0 4.341-3.361 8.216-7.843 8.216zM268.745 219.339c-3.221 0-6.162 1.307-8.356 3.407a11.902 11.902 0 0 0-8.356-3.407c-6.628 0-12.043 5.415-12.043 12.09v18.252h7.422v-18.252c0-2.567 2.054-4.668 4.621-4.668 2.568 0 4.668 2.1 4.668 4.668v18.252h7.422v-18.252c0-2.567 2.054-4.668 4.622-4.668 2.567 0 4.668 2.1 4.668 4.668v18.252h7.422v-18.252c0-6.675-5.415-12.09-12.09-12.09zM321.65 219.339c-3.222 0-6.162 1.307-8.356 3.407a11.902 11.902 0 0 0-8.356-3.407c-6.629 0-12.044 5.415-12.044 12.09v18.252h7.422v-18.252c0-2.567 2.054-4.668 4.622-4.668 2.567 0 4.668 2.1 4.668 4.668v18.252h7.422v-18.252c0-2.567 2.054-4.668 4.621-4.668 2.568 0 4.668 2.1 4.668 4.668v18.252h7.423v-18.252c0-6.675-5.415-12.09-12.09-12.09zM345.799 234.837c0 8.029 6.348 14.844 14.47 14.844h13.958v-7.422H360.27c-4.015 0-7.049-3.501-7.049-7.422 0-3.968 3.034-7.47 7.049-7.47h6.348c1.447 0 1.214 1.635 1.214 2.568 0 .654-.56 1.214-1.214 1.214h-9.803v7.422h9.803c4.715 0 8.59-3.874 8.59-8.636v-1.354c0-4.714-3.875-8.589-8.59-8.589h-6.348c-8.123 0-14.471 6.816-14.471 14.845zM400.524 230.169c.607-1.634 1.307-2.708 3.127-2.708h4.669v-7.329h-4.669c-4.388 0-8.589 3.501-9.99 7.562l-7.655 21.987h7.75zM418.698 234.93c0 8.122 6.302 14.751 14.051 14.751h10.363v-7.422h-10.363c-3.641 0-6.629-3.268-6.629-7.329s2.988-7.376 6.629-7.376h10.363v-7.422h-10.363c-7.749 0-14.05 6.629-14.05 14.798zM455.591 234.837c0 8.029 6.349 14.844 14.471 14.844h13.958v-7.422h-13.958c-4.014 0-7.049-3.501-7.049-7.422 0-3.968 3.035-7.47 7.05-7.47h6.348c1.447 0 1.213 1.635 1.213 2.568 0 .654-.56 1.214-1.213 1.214h-9.803v7.422h9.803c4.715 0 8.589-3.874 8.589-8.636v-1.354c0-4.714-3.874-8.589-8.59-8.589h-6.348c-8.122 0-14.47 6.816-14.47 14.845z"
  />
</svg>